<?xml version="1.0" encoding="UTF-8" standalone="no"?>
<!-- Generator: Adobe Illustrator 14.0.0, SVG Export Plug-In . SVG Version: 6.00 Build 43363)  -->

<svg
   xmlns:dc="http://purl.org/dc/elements/1.1/"
   xmlns:cc="http://creativecommons.org/ns#"
   xmlns:rdf="http://www.w3.org/1999/02/22-rdf-syntax-ns#"
   xmlns:svg="http://www.w3.org/2000/svg"
   xmlns="http://www.w3.org/2000/svg"
   xmlns:sodipodi="http://sodipodi.sourceforge.net/DTD/sodipodi-0.dtd"
   xmlns:inkscape="http://www.inkscape.org/namespaces/inkscape"
   version="1.1"
   id="icon-m-common-location-layer"
   x="0px"
   y="0px"
   width="48px"
   height="48px"
   viewBox="0 0 48 48"
   style="enable-background:new 0 0 48 48;"
   xml:space="preserve"
   inkscape:version="0.48.3.1 r9886"
   sodipodi:docname="icon-m-common-location-inverse.svg"
   inkscape:export-xdpi="90"
   inkscape:export-ydpi="90"><metadata
   id="metadata11553"><rdf:RDF><cc:Work
       rdf:about=""><dc:format>image/svg+xml</dc:format><dc:type
         rdf:resource="http://purl.org/dc/dcmitype/StillImage" /><dc:title></dc:title></cc:Work></rdf:RDF></metadata><defs
   id="defs11551"><filter
     id="filter11555"
     inkscape:label="Invert"
     x="0"
     y="0"
     width="1"
     height="1"
     inkscape:menu="Color"
     inkscape:menu-tooltip="Invert colors"
     color-interpolation-filters="sRGB"><feColorMatrix
       id="feColorMatrix11557"
       type="saturate"
       values="1"
       result="fbSourceGraphic" /><feColorMatrix
       id="feColorMatrix11559"
       in="fbSourceGraphic"
       values="-1 0 0 0 1 0 -1 0 0 1 0 0 -1 0 1 0 0 0 1 0 " /></filter></defs><sodipodi:namedview
   pagecolor="#ffffff"
   bordercolor="#666666"
   borderopacity="1"
   objecttolerance="10"
   gridtolerance="10"
   guidetolerance="10"
   inkscape:pageopacity="0"
   inkscape:pageshadow="2"
   inkscape:window-width="1920"
   inkscape:window-height="1017"
   id="namedview11549"
   showgrid="false"
   inkscape:zoom="9.8333333"
   inkscape:cx="19.624525"
   inkscape:cy="33.609799"
   inkscape:window-x="0"
   inkscape:window-y="29"
   inkscape:window-maximized="0"
   inkscape:current-layer="icon-m-common-location_1_" />
<g
   id="icon-m-common-location_1_">
	<rect
   style="fill:none;"
   width="48"
   height="48"
   id="rect11545" />
	<path
   style="fill:#333333;filter:url(#filter11555)"
   d="M24,0.073C16.138,0.162,9.794,5.886,9.794,12.943c0,2.254,0.649,4.371,1.785,6.214h0   c0.377,0.613,2.52,3.673,3,4.22c4.94,7.059,7.376,15.35,9.313,24.551h0.211c1.938-9.201,4.374-17.492,9.314-24.551   c0.48-0.547,2.622-3.606,3.001-4.219l0.001-0.001c1.136-1.843,1.784-3.96,1.784-6.214C38.205,5.886,31.861,0.162,24,0.073z    M24.267,17.396c-2.566,0-4.645-2.073-4.645-4.632s2.079-4.633,4.645-4.633c2.564,0,4.646,2.074,4.646,4.633   S26.831,17.396,24.267,17.396z"
   id="path11547" />
</g>
</svg>